PathFileType	4	(X/Y/Z)	/Users/itak/Documents/Research/Walk-IL/dataset/trc/00013_00004.trc
DataRate	CameraRate	NumFrames	NumMarkers	Units	OrigDataRate	OrigDataStartFrame	OrigNumFrames
100.000000	100.000000	4	55	mm	100.000000	353	566
Frame#	Time	RPSI			LPSI			L3			STRN			T10			C7			CLAV			RBAK			LBAK			LSHO			LUPA			LAEL			LAOL			LWTS			LWPS			LFRA			LIFD			LHTS			RSHO			RUPA			RAEL			RAOL			RWTS			RWPS			RFRA			RIFD			RHTS			RHPS			RBHD			LFHD			RFHD			LBHD			LHIP			RHIP			RASI			LASI			LKNE			LTHI			LANK			LTIP			LTOE			LMT1			LMT5			LHEE			RKNE			RTHI			RANK			RTIP			RTOE			RMT1			RMT5			RHEE			LHPS			*53			*54			
		X1	Y1	Z1	X2	Y2	Z2	X3	Y3	Z3	X4	Y4	Z4	X5	Y5	Z5	X6	Y6	Z6	X7	Y7	Z7	X8	Y8	Z8	X9	Y9	Z9	X10	Y10	Z10	X11	Y11	Z11	X12	Y12	Z12	X13	Y13	Z13	X14	Y14	Z14	X15	Y15	Z15	X16	Y16	Z16	X17	Y17	Z17	X18	Y18	Z18	X19	Y19	Z19	X20	Y20	Z20	X21	Y21	Z21	X22	Y22	Z22	X23	Y23	Z23	X24	Y24	Z24	X25	Y25	Z25	X26	Y26	Z26	X27	Y27	Z27	X28	Y28	Z28	X29	Y29	Z29	X30	Y30	Z30	X31	Y31	Z31	X32	Y32	Z32	X33	Y33	Z33	X34	Y34	Z34	X35	Y35	Z35	X36	Y36	Z36	X37	Y37	Z37	X38	Y38	Z38	X39	Y39	Z39	X40	Y40	Z40	X41	Y41	Z41	X42	Y42	Z42	X43	Y43	Z43	X44	Y44	Z44	X45	Y45	Z45	X46	Y46	Z46	X47	Y47	Z47	X48	Y48	Z48	X49	Y49	Z49	X50	Y50	Z50	X51	Y51	Z51	X52	Y52	Z52	X53	Y53	Z53	X54	Y54	Z54	X55	Y55	Z55	

354	3.53	-585.0349731445312	1036.723999023438	-176.9510498046875	-618.5097045898438	1032.89013671875	-335.4535827636719	-602.7113647460938	1104.977661132812	-271.2728881835938	-367.1009216308594	1286.126586914062	-296.0258483886719	-616.687744140625	1246.4658203125	-287.6871948242188	-560.4298706054688	1512.003540039062	-300.7690734863281	-405.1402587890625	1414.1513671875	-296.3616943359375	-615.25	1375.314453125	-221.6416168212891	-578.9942016601562	1472.9716796875	-400.742919921875	-474.4406127929688	1477.609375	-471.6360473632812	-498.14208984375	1357.122924804688	-556.2660522460938	-476.6642150878906	1144.335571289062	-599.78759765625	-542.5304565429688	1115.914916992188	-521.2456665039062	-314.0887756347656	949.1591186523438	-511.2681579589844	-365.544921875	904.21337890625	-567.582275390625	-423.4873352050781	1041.264770507812	-598.1056518554688	-215.0636749267578	795.2598876953125	-473.2075500488281	-251.8388977050781	875.21728515625	-513.0863647460938	-482.5953063964844	1492.290649414062	-126.3895034790039	-499.5622863769531	1420.932006835938	-55.21104431152344	-545.96435546875	1158.168334960938	-18.81405639648438	-545.7550048828125	1124.3076171875	-112.9967422485352	-408.5834350585938	901.9906616210938	-32.42015838623047	-475.8973693847656	887.7944946289062	29.90978622436523	-531.944580078125	1082.709594726562	1.925332546234131	-381.2459411621094	715.1326904296875	-31.4857349395752	-373.17919921875	794.0753173828125	-9.224472999572754	-431.9072875976562	790.133544921875	38.11710357666016	-501.2984008789062	1684.894287109375	-212.4060516357422	-326.7488403320312	1704.07275390625	-330.3915405273438	-328.1212463378906	1701.403686523438	-231.8773498535156	-507.1670837402344	1693.424560546875	-356.8576965332031	-552.712890625	930.1149291992188	-456.1083984375	-446.1738891601562	938.4990234375	-98.37971496582031	-367.9249877929688	965.4462280273438	-193.9342346191406	-421.1289672851562	970.8195190429688	-422.3955383300781	-525.7105102539062	481.0372924804688	-420.0252075195312	-543.7921752929688	624.0850219726562	-449.050537109375	-802.176513671875	62.34772872924805	-366.0249633789062	-686.35888671875	278.9098815917969	-407.0586547851562	-585.1048583984375	40.73613739013672	-302.0614318847656	-642.26708984375	53.44997787475586	-285.8919067382812	-680.8350219726562	36.68004608154297	-385.9346923828125	-868.1768798828125	93.42141723632812	-314.0588989257812	-313.8629150390625	532.0704956054688	-154.2063446044922	-386.9894104003906	783.3572387695312	-101.8608245849609	-237.7451782226562	36.3287239074707	-192.1263732910156	-293.5779113769531	407.4407653808594	-155.5625762939453	-35.23890686035156	137.5613403320312	-216.3929748535156	-92.68553924560547	119.4106369018555	-252.7587585449219	-95.47776031494141	78.96445465087891	-165.1189575195312	-291.5043334960938	24.25275993347168	-237.8518829345703	-297.8598327636719	838.3446655273438	-552.607177734375	nan	nan	nan	nan	nan	nan	
355	3.54	-593.0360717773438	1036.6162109375	-177.4727935791016	-627.1340942382812	1033.116943359375	-335.4584045410156	-610.9465942382812	1105.454956054688	-271.2611389160156	-374.8595581054688	1286.258666992188	-296.8257141113281	-624.6171264648438	1246.919677734375	-287.92431640625	-567.9276123046875	1512.349975585938	-301.4862060546875	-412.7064819335938	1414.364135742188	-297.2299499511719	-622.8492431640625	1375.832885742188	-222.121337890625	-586.6488647460938	1473.221435546875	-401.3639526367188	-482.2437133789062	1477.682250976562	-472.4573364257812	-506.1854248046875	1357.231323242188	-557.093017578125	-485.1572875976562	1144.315673828125	-600.6639404296875	-551.2003784179688	1116.186279296875	-522.1259155273438	-324.0753784179688	947.5393676757812	-512.5642700195312	-375.9484252929688	903.2220458984375	-569.1019897460938	-432.6901245117188	1040.814086914062	-599.1764526367188	-226.5343780517578	792.6251220703125	-474.8717956542969	-262.5915832519531	872.9769897460938	-514.5344848632812	-489.7802734375	1492.715087890625	-127.1462478637695	-506.7455139160156	1421.320922851562	-55.95193862915039	-552.5652465820312	1158.26123046875	-19.66507530212402	-552.7615966796875	1124.65234375	-113.8617858886719	-412.3776550292969	903.6140747070312	-35.1009521484375	-479.0897827148438	888.283203125	27.63811111450195	-537.8458862304688	1082.687255859375	0.7850356101989746	-382.6925048828125	717.1371459960938	-35.26457595825195	-375.4516906738281	796.0855712890625	-12.68166923522949	-433.86181640625	791.1522827148438	35.06213760375977	-508.3128051757812	1685.29150390625	-213.4606628417969	-333.6471252441406	1703.872314453125	-331.3701477050781	-335.0903625488281	1701.263916015625	-232.8202514648438	-514.062255859375	1693.739135742188	-357.931396484375	-561.6925659179688	930.5850830078125	-456.3741760253906	-453.9830322265625	938.2879028320312	-99.11286163330078	-376.1431274414062	965.425537109375	-194.9354858398438	-429.9493408203125	971.2679443359375	-423.2568969726562	-531.9207763671875	481.5340881347656	-420.293212890625	-551.0067138671875	624.4195556640625	-449.308837890625	-803.1544799804688	60.03925704956055	-365.1549682617188	-690.168701171875	277.7615356445312	-406.5411987304688	-585.2332153320312	40.79400634765625	-302.1470947265625	-642.71044921875	52.97919464111328	-285.781982421875	-681.36376953125	36.61368179321289	-385.8276672363281	-869.3392333984375	89.91342163085938	-312.7880249023438	-320.3011779785156	532.4649047851562	-154.92822265625	-394.5805969238281	783.398681640625	-102.5300140380859	-243.1652069091797	37.19985198974609	-192.8082275390625	-299.9495544433594	408.0209655761719	-156.0662536621094	-40.1415901184082	139.3445129394531	-214.9203338623047	-97.51637268066406	121.0519332885742	-251.7899169921875	-101.4589080810547	80.79837036132812	-164.2162933349609	-296.1054992675781	24.30169868469238	-239.1506042480469	-308.8266296386719	836.6936645507812	-554.2868041992188	nan	nan	nan	nan	nan	nan	
356	3.55	-600.79345703125	1036.737548828125	-178.0965881347656	-635.5245971679688	1033.464599609375	-335.5336303710938	-618.934326171875	1106.034301757812	-271.2670593261719	-382.4985656738281	1286.577270507812	-297.6111145019531	-632.3627319335938	1247.526733398438	-288.0409545898438	-575.3289184570312	1512.8662109375	-302.0505676269531	-420.163330078125	1414.748291015625	-298.0381164550781	-630.27734375	1376.515014648438	-222.3982086181641	-594.2620849609375	1473.63232421875	-401.8193664550781	-490.048828125	1477.916259765625	-473.18701171875	-514.2864379882812	1357.477172851562	-557.795166015625	-493.6906127929688	1144.43505859375	-601.4092407226562	-559.8448486328125	1116.59375	-522.8359985351562	-334.1667175292969	945.9239501953125	-513.9314575195312	-386.5588989257812	902.280517578125	-570.6626586914062	-442.0311584472656	1040.4560546875	-600.1928100585938	-238.2342987060547	789.9161987304688	-476.7589111328125	-273.5504760742188	870.6752319335938	-516.1206665039062	-496.7646484375	1493.309448242188	-127.8073425292969	-513.6524658203125	1421.890869140625	-56.56503677368164	-558.9769897460938	1158.530639648438	-20.41629028320312	-559.6517333984375	1125.18798828125	-114.6250305175781	-416.1411437988281	905.3939208984375	-37.81896209716797	-482.1939086914062	888.9447021484375	25.34228134155273	-543.5821533203125	1082.84130859375	-0.2861907780170441	-384.1743774414062	719.33203125	-39.16683197021484	-377.7151184082031	798.25537109375	-16.24763870239258	-435.7530517578125	792.3475952148438	31.91606140136719	-515.231689453125	1685.899658203125	-214.4518890380859	-340.4875183105469	1703.872314453125	-332.3507995605469	-341.95751953125	1701.352905273438	-233.7688140869141	-520.9110107421875	1694.220825195312	-358.9424743652344	-570.3766479492188	931.1300048828125	-456.6734008789062	-461.5839233398438	938.2990112304688	-99.8765869140625	-384.1103210449219	965.6030883789062	-195.9400177001953	-438.5253601074219	971.8480224609375	-424.110107421875	-537.8308715820312	482.1551818847656	-420.3719177246094	-557.9179077148438	624.8377075195312	-449.4346008300781	-803.9951171875	57.99242782592773	-364.3154907226562	-693.7495727539062	276.8360900878906	-405.9584045410156	-585.33349609375	40.83592224121094	-302.281005859375	-643.0712280273438	52.56285095214844	-285.6629333496094	-681.8081665039062	36.59366989135742	-385.7041015625	-870.29443359375	86.72031402587891	-311.5615844726562	-326.4139099121094	533.03369140625	-155.4885864257812	-401.9881591796875	783.7071533203125	-103.1885147094727	-249.8759613037109	38.04647445678711	-193.5824584960938	-306.2880249023438	408.6976318359375	-156.4631195068359	-45.84839630126953	139.9379119873047	-213.2632141113281	-103.1668014526367	121.8161163330078	-250.7205200195312	-108.5983200073242	81.81433868408203	-163.2136840820312	-302.0204772949219	24.72297477722168	-240.6042633056641	-320.0359802246094	835.0396728515625	-556.0974731445312	nan	nan	nan	nan	nan	nan	
357	3.56	-608.3392944335938	1037.1171875	-178.7760009765625	-643.658935546875	1033.960693359375	-335.6896362304688	-626.6702270507812	1106.7255859375	-271.3195190429688	-390.0193786621094	1287.08740234375	-298.390625	-639.9270629882812	1248.298583984375	-288.0665283203125	-582.6210327148438	1513.558715820312	-302.4650268554688	-427.5090942382812	1415.3076171875	-298.7961120605469	-637.5307006835938	1377.3671875	-222.4911193847656	-601.8290405273438	1474.220581054688	-402.1175231933594	-497.8478393554688	1478.327270507812	-473.83203125	-522.4481811523438	1357.871459960938	-558.3685302734375	-502.2562561035156	1144.702758789062	-601.9989013671875	-568.4547119140625	1117.149169921875	-523.3463745117188	-344.3848571777344	944.3090209960938	-515.3597412109375	-397.3797912597656	901.3990478515625	-572.2536010742188	-451.5142517089844	1040.20361328125	-601.1387939453125	-250.1633911132812	787.139404296875	-478.8916015625	-284.7106323242188	868.3302001953125	-517.8546142578125	-503.5541076660156	1494.064697265625	-128.3800811767578	-520.2797241210938	1422.629028320312	-57.05960845947266	-565.1669921875	1158.963500976562	-21.05342483520508	-566.4116821289062	1125.897583007812	-115.2688140869141	-419.8856506347656	907.3056640625	-40.56918716430664	-485.2063293457031	889.7639770507812	23.03606605529785	-549.1119384765625	1083.159545898438	-1.271358966827393	-385.6820373535156	721.6964721679688	-43.174072265625	-379.96728515625	800.5687866210938	-19.90912246704102	-437.5775146484375	793.7025146484375	28.68558692932129	-522.052490234375	1686.70849609375	-215.3702239990234	-347.2695922851562	1704.08642578125	-333.3207397460938	-348.72607421875	1701.676635742188	-234.7130584716797	-527.716552734375	1694.8720703125	-359.8799133300781	-578.7344360351562	931.76416015625	-457.0006713867188	-468.9878845214844	938.5772705078125	-100.6476440429688	-391.83154296875	966.0089111328125	-196.91748046875	-446.8289184570312	972.5689086914062	-424.9295349121094	-543.5128173828125	482.9166259765625	-420.28369140625	-564.5768432617188	625.3641357421875	-449.4459228515625	-804.7055053710938	56.18130874633789	-363.5378723144531	-697.1495971679688	276.1282958984375	-405.34619140625	-585.40771484375	40.8592414855957	-302.4803771972656	-643.3609008789062	52.20128631591797	-285.5480346679688	-682.1760864257812	36.59894561767578	-385.5794677734375	-871.0753784179688	83.82035827636719	-310.428466796875	-332.2134399414062	533.7880249023438	-155.8964996337891	-409.1974792480469	784.31396484375	-103.8372039794922	-257.9358825683594	38.86547088623047	-194.4290466308594	-312.6060485839844	409.4751281738281	-156.7765045166016	-52.4704704284668	139.3831024169922	-211.5802917480469	-109.7627334594727	121.7075042724609	-249.6512298583984	-116.9484176635742	82.06879425048828	-162.179931640625	-309.3594970703125	25.50851821899414	-242.1471710205078	-331.497314453125	833.3997802734375	-558.0393676757812	nan	nan	nan	nan	nan	nan	
